<?xml version="1.0" encoding="iso-8859-1"?>
<!-- Uploaded to: SVG Repo, www.svgrepo.com, Generator: SVG Repo Mixer Tools -->
<svg height="800px" width="800px" version="1.1" id="Layer_1" xmlns="http://www.w3.org/2000/svg" xmlns:xlink="http://www.w3.org/1999/xlink" 
	 viewBox="0 0 512 512" xml:space="preserve">
<path style="fill:#547475;" d="M496.371,138.094c4.167,0,7.545-3.378,7.545-7.545v-22.611c0-4.167-3.378-7.545-7.545-7.545H15.629
	c-4.168,0-7.545,3.378-7.545,7.545v22.611c0,4.167,3.377,7.545,7.545,7.545h29.103v235.812H15.629c-4.168,0-7.545,3.378-7.545,7.545
	v22.611c0,4.167,3.377,7.545,7.545,7.545h480.741c4.167,0,7.545-3.378,7.545-7.545v-22.611c0-4.167-3.378-7.545-7.545-7.545h-29.103
	V138.094H496.371z"/>
<g>
	<path style="fill:#EFBA00;" d="M503.916,180.361h-36.648c-4.466,0-8.084-3.618-8.084-8.084s3.618-8.084,8.084-8.084h36.648
		c4.466,0,8.084,3.618,8.084,8.084S508.382,180.361,503.916,180.361z"/>
	<path style="fill:#EFBA00;" d="M503.916,213.851h-36.648c-4.466,0-8.084-3.618-8.084-8.084c0-4.466,3.618-8.084,8.084-8.084h36.648
		c4.466,0,8.084,3.618,8.084,8.084C512,210.232,508.382,213.851,503.916,213.851z"/>
	<path style="fill:#EFBA00;" d="M503.916,247.341h-36.648c-4.466,0-8.084-3.618-8.084-8.084s3.618-8.084,8.084-8.084h36.648
		c4.466,0,8.084,3.618,8.084,8.084C512,243.721,508.382,247.341,503.916,247.341z"/>
	<path style="fill:#EFBA00;" d="M503.916,280.829h-36.648c-4.466,0-8.084-3.618-8.084-8.084s3.618-8.084,8.084-8.084h36.648
		c4.466,0,8.084,3.618,8.084,8.084S508.382,280.829,503.916,280.829z"/>
	<path style="fill:#EFBA00;" d="M503.916,314.318h-36.648c-4.466,0-8.084-3.618-8.084-8.084s3.618-8.084,8.084-8.084h36.648
		c4.466,0,8.084,3.618,8.084,8.084S508.382,314.318,503.916,314.318z"/>
	<path style="fill:#EFBA00;" d="M503.916,347.808h-36.648c-4.466,0-8.084-3.62-8.084-8.084c0-4.466,3.618-8.084,8.084-8.084h36.648
		c4.466,0,8.084,3.618,8.084,8.084C512,344.188,508.382,347.808,503.916,347.808z"/>
	<path style="fill:#EFBA00;" d="M44.733,180.361H8.084c-4.466,0-8.084-3.618-8.084-8.084s3.618-8.084,8.084-8.084h36.648
		c4.466,0,8.084,3.618,8.084,8.084S49.198,180.361,44.733,180.361z"/>
	<path style="fill:#EFBA00;" d="M44.733,213.851H8.084c-4.466,0-8.084-3.618-8.084-8.084c0-4.466,3.618-8.084,8.084-8.084h36.648
		c4.466,0,8.084,3.618,8.084,8.084C52.817,210.232,49.198,213.851,44.733,213.851z"/>
	<path style="fill:#EFBA00;" d="M44.733,247.341H8.084c-4.466,0-8.084-3.618-8.084-8.084s3.618-8.084,8.084-8.084h36.648
		c4.466,0,8.084,3.618,8.084,8.084C52.817,243.721,49.198,247.341,44.733,247.341z"/>
	<path style="fill:#EFBA00;" d="M44.733,280.829H8.084c-4.466,0-8.084-3.618-8.084-8.084s3.618-8.084,8.084-8.084h36.648
		c4.466,0,8.084,3.618,8.084,8.084S49.198,280.829,44.733,280.829z"/>
	<path style="fill:#EFBA00;" d="M44.733,314.318H8.084c-4.466,0-8.084-3.618-8.084-8.084s3.618-8.084,8.084-8.084h36.648
		c4.466,0,8.084,3.618,8.084,8.084S49.198,314.318,44.733,314.318z"/>
	<path style="fill:#EFBA00;" d="M44.733,347.808H8.084c-4.466,0-8.084-3.62-8.084-8.084c0-4.466,3.618-8.084,8.084-8.084h36.648
		c4.466,0,8.084,3.618,8.084,8.084C52.817,344.188,49.198,347.808,44.733,347.808z"/>
</g>
<path style="fill:#8AACAD;" d="M428.221,360.278c0,7.143-5.792,12.935-12.935,12.935H96.714c-7.143,0-12.935-5.792-12.935-12.935
	V151.723c0-7.143,5.792-12.935,12.935-12.935h318.573c7.143,0,12.935,5.792,12.935,12.935v208.555H428.221z"/>
<path style="opacity:0.15;fill:#231F20;enable-background:new    ;" d="M101.026,360.278V151.723
	c0-7.143,5.792-12.935,12.935-12.935H96.714c-7.143,0-12.935,5.792-12.935,12.935v208.555c0,7.143,5.792,12.935,12.935,12.935
	h17.246C106.817,373.213,101.026,367.421,101.026,360.278z"/>
<g>
	<path style="fill:#A9C4C4;" d="M395.255,180.361h-3.593c-4.466,0-8.084-3.618-8.084-8.084s3.618-8.084,8.084-8.084h3.593
		c4.465,0,8.084,3.618,8.084,8.084S399.72,180.361,395.255,180.361z"/>
	<path style="fill:#A9C4C4;" d="M367.23,180.361H117.877c-4.466,0-8.084-3.618-8.084-8.084s3.618-8.084,8.084-8.084H367.23
		c4.465,0,8.084,3.618,8.084,8.084S371.695,180.361,367.23,180.361z"/>
</g>
</svg>