<?xml version="1.0" encoding="UTF-8"?>
<svg width="500mm" height="82mm" version="1.1" viewBox="0 0 500 82" xmlns="http://www.w3.org/2000/svg">
<title>Nexter Systems logo</title>
 <defs>
  <clipPath id="vlpb">
   <path d="m0 0h595v842h-595z"/>
  </clipPath>
  <clipPath id="vlpa">
   <path d="m0 0h595v842h-595z"/>
  </clipPath>
 </defs>
 <g transform="translate(290 -118)">
  <g transform="matrix(3.68 0 0 -3.68 -13 118)" style="fill:#717275">
   <path d="m0 0v-4h8.02v-18.3h4v18.3h8.02v4z" style="fill:#717275"/>
  </g>
  <g transform="matrix(3.68 0 0 -3.68 -1794 2907)" style="fill:#717275">
   <g clip-path="url(#vlpb)" style="fill:#717275">
    <g transform="translate(425 758)" style="fill:#717275">
     <path d="m0 0h-16.7v-22.3h3.99v18.3l12.7-2e-3c0.753 0 1.36-0.61 1.36-1.36l3e-3 -16.9h4v16.9c0 2.96-2.4 5.36-5.36 5.37" style="fill:#717275"/>
    </g>
    <g transform="translate(530 752)" style="fill:#717275">
     <path d="m0 0c0 2.96 2.4 5.36 5.36 5.37h9.25v-4h-9.24c-0.755 0-1.36-0.612-1.36-1.36l-3e-3 -16.9h-4z" style="fill:#717275"/>
    </g>
   </g>
  </g>
  <path d="m-57 179 20.6 20.6h19.4l-40.1-40.1z" style="fill:#ee2722"/>
  <g transform="matrix(3.68 0 0 -3.68 -57 138)">
   <path d="m0 0 5.61 5.61h5.28l-10.9-10.9z" style="fill:#ee2722"/>
  </g>
  <g transform="matrix(3.68 0 0 -3.68 -1794 2907)" style="fill:#717275">
   <g clip-path="url(#vlpa)" style="fill:#717275">
    <g transform="translate(455 752)" style="fill:#717275">
     <path d="m0 0c0 2.96-2.4 5.36-5.36 5.37h-11.3c-2.96-2e-3 -5.36-2.4-5.36-5.37v-11.5c0-2.96 2.4-5.36 5.36-5.37h14.7v4l-14.7 1e-3c-0.753 0-1.36 0.612-1.36 1.36v11.5c0 0.753 0.61 1.36 1.36 1.36h11.3c0.753 0 1.36-0.612 1.36-1.36v-3.12c0-0.753-0.611-1.36-1.36-1.36l-8.67-2e-3v-3.99h8.67c2.96 1e-3 5.36 2.4 5.36 5.37z" style="fill:#717275"/>
    </g>
    <g transform="translate(527 752)" style="fill:#717275">
     <path d="m0 0c0 2.96-2.4 5.36-5.36 5.37h-11.3c-2.96-2e-3 -5.36-2.4-5.36-5.37v-11.5c0-2.96 2.4-5.36 5.36-5.37h14.7v4l-14.7 1e-3c-0.753 0-1.36 0.612-1.36 1.36v11.5c0 0.753 0.61 1.36 1.36 1.36h11.3c0.755 0 1.36-0.612 1.36-1.36v-3.12c0-0.753-0.609-1.36-1.36-1.36l-8.67-2e-3v-3.99h8.67c2.96 1e-3 5.36 2.4 5.36 5.37z" style="fill:#717275"/>
    </g>
   </g>
  </g>
  <g transform="matrix(3.68 0 0 -3.68 -119 118)" style="fill:#717275">
   <path d="m0 0 11.1-11.1-11.1-11.1h5.28l11.1 11.1-11.1 11.1z" style="fill:#717275"/>
  </g>
 </g>
</svg>
